<?xml version="1.0" encoding="UTF-8"?>
<svg version="1.1" viewBox="0 0 2048 1638" width="600" height="480" xmlns="http://www.w3.org/2000/svg">
<path transform="translate(1164,229)" d="m0 0h253l9 3 7 6 4 8 1 4 1 48v427l-1 22-2 10-6 7-3 1-11 1h-777l-23-1-7-3-3-6-1-5v-503l3-12 5-5 4-1zm-519 42-7 1-1 3v476l1 1h768v-479l-1-1z" fill="#0A3560"/>
<path transform="translate(997,337)" d="m0 0 42 1 5 2 1 3 1 14 17 3 16 5 11 6 13 12 7 9 7 13v2h22l6 4 4 9 2 9v29l-5 21-4 2h-25l-2 9 12-2 23-4h10l8 3 5 6 1 3v12l-5 10-9 10-12 9-16 9-28 13-8 4-5 35-6 18-8 15-8 10-10 8-13 6-14 4-6 1h-25l-18-5-14-8-10-9-10-11-10-21-2-15-5 3-11 9-14 7-10 1-8-5-4-6-2-9 1-13 4-10 9-16 10-13 10-11 7-8 8-9-1-4-9-10-8-13-2-3-26 1-4-8-4-18-1-7v-11l3-17 4-11 4-3 16-1h8l10-19 8-9 12-9 15-7 10-3h16v-11l2-7 4-3z" fill="#AEBFD6"/>
<path transform="translate(489,922)" d="m0 0 3 3 4 9 5 4 6 2 10 1h1012l11-2 11-6 8-6 5 1 1 3v8l-3 10-9 6-25 12-29 11-12 3-64 1-269 1h-66l-519-1-17-6-48-22-12-6-4-7v-18z" fill="#09345F"/>
<path transform="translate(610,786)" d="m0 0h12l1 2-5 10-12 14-13 14-7 8-29 31-7 7-1 2h-2l-2 4-10 11-6 8 319 2h44l13-1 10-4 11-7 4-1 81-1h22l92 1 17 1 6 4 6 5 11 1h360l-9-11-11-12-15-16-16-16-7-8-13-13-9-11-8-8-8-11-1-5h13l7 3 6 4 7 6v2l4 2 9 9 7 8 12 12 7 8 16 17 7 7 7 8 19 19 11 14 2 6-8 6-15 9-9 3-8 1h-398l-1-1-2-16h-124l-60-1-2 12-4 5-2 1-54 1h-365l-9-3-5-8v-10l5-10 15-16 9-10 7-8 9-10 11-12 16-17 12-13 11-13 5-6 11-8z" fill="#0B3661"/>
<path transform="translate(993,370)" d="m0 0h45l22 3 13 4 12 7 10 9 10 15 4 11 2 12v35l9 3 1 1 2-12v-37l-2-8v-4l2-2h16l6 4 4 9 2 9v29l-5 21-4 2h-25v2l-5-1-8-1-9 11-9 9-14 8-15 4-16 2h-33l-27-2-12-2-12-4-14-8-9-8-7-11-5-12-3-18v-19l3-16 4-10 8-11 9-9 11-7 15-5z" fill="#08335E"/>
<path transform="translate(629,1078)" d="m0 0h63l16 2 15 5 13 7 11 9 9 11 8 14 4 15 1 7v15l-2 12-5 13-5 10-9 11-12 9-16 8-11 3-13 2h-68l-1-3v-140l1-9zm43 44-1 4v39l1 22h30l10-4 8-9 5-12v-16l-6-12-7-7-8-4-5-1z" fill="#6C99BD"/>
<path transform="translate(888,798)" d="m0 0h108l258 1 7 10 10 14 2 5-1 1-17-1h-490l-39 1 1-5 10-10 8-11 5-4z" fill="#09345F"/>
<path transform="translate(816,1078)" d="m0 0 41 1 1 1 1 91 1 11 4 4 5 1h13l7-3 2-2 1-4 1-83 1-16 3-1 39 1v84l-1 29-4 11-8 11-9 8-14 7-11 3-6 1h-17l-16-4-12-6-12-11-6-10-4-11-1-8-1-44v-45l1-15z" fill="#6D9ABE"/>
<path transform="translate(1180,1078)" d="m0 0h23l34 1 1 1v35l-1 6-5 1-48 1v9l48 1v40l-2 1h-47l1 13 53 1 2 2v39l-4 2h-94l-1-1v-150l1-1z" fill="#6D99BE"/>
<path transform="translate(1353,1077)" d="m0 0 18 1 19 6 15 9 12 11 7 10 3 6-1 4-11 6-23 12h-2l-7-10-9-7-7-2h-17l-10 4-8 7-6 11-1 4v13l4 11 9 10 9 4 5 1h12l11-4 9-7 6-8 5 1 16 8 11 6 5 4-1 5-6 10-7 8-13 10-16 8-15 4h-22l-10-2-16-7-11-7-12-12-7-10-7-16-3-14v-20l4-16 4-10 10-14 14-14 17-9 13-4z" fill="#6D99BE"/>
<path transform="translate(1273,799)" d="m0 0h111l5 3 8 8 14 19 11 14 14 18 10 13 1 5h-127l-5-2-4-5-4-11-8-13-10-18-9-15-7-14z" fill="#09345F"/>
<path transform="translate(1023,1078)" d="m0 0h70l5 2v40l-4 2h-31v52l-1 56-1 1h-42l-1-5v-105l-12 1h-22l-1-1v-41l1-1z" fill="#6E9ABE"/>
<path transform="translate(733,837)" d="m0 0 539 1 8 4 4 6v2l-2 1h-557l-16-1 2-4 7-6 7-2z" fill="#0C3862"/>
<path transform="translate(1165,1083)" d="m0 0h15l11 5 2 1-1 3-4 1 1 5 10 1 8-2 9 1 2 1v4l-8 1-5-1h-13l-8 3-3 1-1 4-6 9v17l4 8 9 6-1 5-7 6-3 5-2 6v11l2 6h1l1-5 3 3 1 7h-2l-1 5 4 1 2-6v-2l9-1 24 1 6 5-2 4-2 1v9l-9 3h-11l-4 1-16 1-4 1h-11l-6-3-3-2h-8l-3 1-3-7-1 23h-1v-136h1l1 11 2-15 3-1 4 8 8-2v-7l3-4z" fill="#9AC9EC"/>
<path transform="translate(664,799)" d="m0 0h57l1 4-6 10-11 14-8 11-10 14-13 18-6 8-6 5h-61l-4-2 1-5 10-13 13-16 9-12 11-13 10-14 6-7z" fill="#0A3560"/>
<path transform="translate(720,862)" d="m0 0h561l11 1 5 3 1 4-1 1-54 1h-448l-95-1-3-5 2-3z" fill="#113C67"/>
<path transform="translate(993,370)" d="m0 0h45l22 3 13 4 12 7 10 9 10 15 4 11 2 12v35l9 3 1 1 2-12v-37l-2-8v-4l2-2h16l6 4 4 9 2 9v29l-5 21-4 2h-25v2l-5-1-8-1-9 11-9 9-14 8-15 4-16 2h-33l-27-2-12-2-12-4-14-8-9-8-7-11-5-12-3-18v-19l3-16 4-10 8-11 9-9 11-7 15-5zm15 4-22 1-16 3-13 5-10 7-11 11-7 12-3 10-1 7v24l4 17 6 11 12 13 11 7 13 5 11 2 28 2h30l16-2 15-5 11-7 10-10 6-10 4-10 2-10v-30l-3-13-7-13-7-8-12-9-9-4-9-3-14-2z" fill="#0D3963"/>
<path transform="translate(997,337)" d="m0 0 42 1 5 2 1 3 1 14 17 3 16 5 11 6 13 12 7 9 7 13v2h6l-2 5 2 3 1 6v37l-2 13-9-4-3-3v-33l-3-15-4-10-11-15-10-8-14-7-14-3-16-2h-45l-24 3-12 4-8 1-5 5-8 6-7 9-6 10-3-2-2 2-1 2h-3l-2 5-2-2 3-9 8-16 9-11 12-9 15-7 10-3h16v-11l2-7 4-3z" fill="#ADBFD6"/>
<path transform="translate(1009,1082)" d="m0 0h51l15 2 3 2v4l1 13-3 2-12 2-5 3-3 5 1 11 1 4v38l-1 15-6 11-2 7-2 10-3 5h-7l-2-4-2-35-5-15-2-3-1-15 2-13 4-7-1-10-5-5-8-4-11-1-2-1 1-8 1-2-2-3 1-4 2-1v-2z" fill="#9AC9ED"/>
<path transform="translate(1008,374)" d="m0 0 35 1 14 2 15 5 11 8 9 8 8 14 3 9 1 6v30l-4 16-6 11-9 10-10 8-12 5-13 3-10 1h-30l-28-2-14-3-12-5-10-7-7-7-7-10-4-9-3-14v-24l3-14 6-12 9-10 9-8 12-6 15-4 7-1zm-12 8-17 2-12 3-11 6-10 9-7 10-4 11-1 7v22l2 12 5 12 9 10 7 6 12 6 13 3 30 2h24l19-2 13-5 10-7 9-10 6-12 3-14v-24l-4-13-6-11-8-9-14-8-9-3-21-3z" fill="#90BFE4"/>
<path transform="translate(1317,1103)" d="m0 0 4 3-8 16-7 9-4 2-1 2v11l2 1 1 21 1 6h2l1-27 3-8 5-2 2-5 1-2h2v-2l5-5 11-6h6l-5 4-7 5-7 10-3 6-1 7v10l2 9 7 14 7 7 11 6 8 2-1 6-3 1h-7l-16-7-8-5-4 1v7l11 12 18 10 12 3h8l10-3 2-2h3l2-4 9-2 11-8 1-2h2v-7l-9 1-5 2-3-1v2l-7 2-13 1 1-4 10-8 7-6 5-8 9 1 12 7 7 4v5l-9 10-9 8-11 7-16 6-6 2h-19l-18-6-14-7-9-7-10-11-8-14-3-10-1-17 1-14 5-13 5-9 9-10h2l1-3z" fill="#306087"/>
<path transform="translate(647,1134)" d="m0 0 5 2 1 4h2v2h7l2 2v35h-7l-1 2v8l1 4 13-1 25-1 18-2h7l5-2 9-8h2l1-5 3-1 4-16h4l3 4-1 7-4 5-4 1v2h-2l-1 5-2 12-6 9-8 8-7 5-17 3-15 3h-15l-9-1-7 1-8-2-8-7v-20l2-21v-21l4-13z" fill="#99C8EC"/>
<path transform="translate(971,530)" d="m0 0 5 5 4 7 7 3 13 2-4 2h-4v2l11-1 4-1-2-2 10-3 2-2 8-1 1-1 13-1h6l7-4h2v-2l6-2v38l-1 7-10 7h-61l-9-1-7-6-2-4v-40z" fill="#6C99BE"/>
<path transform="translate(832,1101)" d="m0 0h4l6 9 1 3 2 48 2-7 3 2 2 22 7 10 2 2 12 3 11-1 9-4h2l1 7 9-2 5-3h2l1 2v7l-7 11-5 4-10 6-3 2-6 1h-15l-10-4-14-8-9-14-3-6-1-8v-19l1-60z" fill="#9AC9ED"/>
<path transform="translate(929,1089)" d="m0 0h2l1 10v83l-2 9-5 10-7 7-5 3 4-12 1-4v-16l-3-5h-4l-2 7-3 3h-2v2l-6-1-1-4v-32l1-56 1-1h7l3 3-1 4-4 7 1 5 1 4 3 1 3 6 5-1 4-9 2-6-2-11 2-4z" fill="#316188"/>
<path transform="translate(718,1093)" d="m0 0 7 2 7 5 5 3 12 11 9 12 5 12 2 9v17l-3 14-8 14-9 11-7 6-8 4-2-1 7-8 3-3 4-10v-10l-1-5 3-3h2l2-4 2-3-1-7-4-2-3 12-2 4-8 7-6 4-4 1 1-5 5-12 1-3v-21l-4-10-9-10-7-4-5-3-4-2 7-1 9 4 7 2 9 3-1-7-11-12-5-5 2-4z" fill="#306087"/>
<path transform="translate(1202,1304)" d="m0 0h16l10 28 5 11 1-16v-16l-2-4v-3h16l1 1-1 73h-15l-4-13-9-26-2-1 1 40h-17l2-5v-63z" fill="#9BB9D0"/>
<path transform="translate(1126,1304)" d="m0 0h29l5 4 1 2 1 9v48l-3 9-3 2h-32l-3-1-2-5-1-9v-37l1-16 2-4zm12 11-6 1v50l1 1h14l1-17v-30l-2-5z" fill="#9CB9D0"/>
<path transform="translate(722,1304)" d="m0 0h30l5 5 2 7v49l-2 10-4 3h-32l-4-3-2-13v-28l1-23 3-5zm8 11-1 1v49l1 2h14l1-34v-17l-1-1z" fill="#9CB9D0"/>
<path transform="translate(885,1303)" d="m0 0 16 1-1 63h15v-63h16l1 2-2 3-1 10-1 56-5 3h-32l-3-3-2-7-1-58-1-6z" fill="#9CB9D0"/>
<path transform="translate(973,1304)" d="m0 0h38l7 6 1 3v18l-13 1-1-1-1-14-6-1h-8v50l14 1v-21l5-1 9 1 1 1v22l-4 7-2 2h-39l1-6v-62z" fill="#9CB9D0"/>
<path transform="translate(919,527)" d="m0 0v3l-4 5h-2v2h-3l2-4zm-10 10 2 2-10 14h-2l-1 5-6 10-4 14v14l3 6 8 5 8-1 10-4 6-5 1-5-7 2-5 3h-8l-1-4 5-4 5-2 3-1 2-5 3-4 8-3h4l2 5 5-2h3v21l4 17 6 11 14 14 8 4h7l4-1 2 6 3 2 9 1 3-1 1-3h2v2l4 1 5-3h9l6-2 4-2 3 3 7-1v-2l3-2 2-7 3 3 1 6 11-4 10-12 5-7 1 2-4 9-7 9-10 8-13 6-14 4-6 1h-25l-18-5-14-8-10-9-10-11-10-21-2-15-5 3-11 9-14 7-10 1-8-5-4-6-2-9 1-13 4-10 9-16 10-13z" fill="#9BB9D0"/>
<path transform="translate(898,406)" d="m0 0 10 1v8l-2 10v27l3 18 2 10-2 1-13 1h-10l-4-8-4-18-1-7v-11l3-17 4-11 4-3z" fill="#0C3762"/>
<path transform="translate(1382,1304)" d="m0 0h37v13l-30-2v18l23 2 5 4 2 5v25l-4 8-2 1h-37l-1-1v-11l3-1 3 1 24 1v-12l1-7h-15l-12-1-3-4v-33l4-5z" fill="#9CB9D0"/>
<path transform="translate(640,1304)" d="m0 0h35l1 3-1 10-14-1h-15l-1 18h14l11 1 5 5 1 23-1 9-4 5-2 1h-37v-13l9 1 21 1-1-19-24-1-4-4-1-3v-28l4-6z" fill="#9BB9D0"/>
<path transform="translate(1293,1304)" d="m0 0h42l1 2-1 10-3 1-25-2v21l17-2h4v13l-1 1-20-1v20l22-1 5-1 1 1v11l-1 1h-41z" fill="#9CB9D0"/>
<path transform="translate(657,1083)" d="m0 0h23l11 1 10 4v3h-3l3 6 4 4 1 6-6 1h-20l-3-1h-10l-10 4-4 1-2 4-5 1-2-1-1-10 7-12v-3l-5-2 3-3z" fill="#9AC9ED"/>
<path transform="translate(800,1304)" d="m0 0h17l-1 20v43l27-1v12h-43l1-5v-63z" fill="#AFBFD6"/>
<path transform="translate(970,525)" d="m0 0 9 1 15 2 27 1h10l16-1h14l1 1-1 43-2 4v-44l-5 1v2l-9 5h-11l-8 1-1 1-8 1-2 2-7 2 1 2-11 3-6-1v-2l4-1-13-3-5-5-6-9-1 1-1 40h-1v-45z" fill="#9AB8CF"/>
<path transform="translate(977,593)" d="m0 0h60l20 1 1 1v11l-3 2-7 1h-65l-12-1-1-1 1-10 2-3z" fill="#6B98BD"/>
<path transform="translate(1352,1081)" d="m0 0h10l17 3 2 1v2h-10l2 2v6l3 5v5l-4 3-12 3-4 2h-24l-3-2 2-6 6-9-1-5 1-2-6 1-3-2 8-4z" fill="#9AC9EC"/>
<path transform="translate(949,378)" d="m0 0h5l-5 4-9 7-7 7-8 13-4 14-1 8v19l3 18 5 12 1 4-2-1v-2h-2v2l-7-1 2 8-4-2-6-11-3-11-2-14v-27l3-18 6-1-2 7 2-3 3-1 2-4 4 2 7-11 9-10 6-4h2z" fill="#99B7CF"/>
<path transform="translate(820,1086)" d="m0 0 5 1 5 6-1 6-1 1v85l2 10 3 6 6 8 5 5 6 4-3 1-16-8-4-8-4-5-3-7-1-9v-95z" fill="#306087"/>
<path transform="translate(997,337)" d="m0 0 42 1 5 2 1 3v12l-1 2-20-1h-38l-2-3v-10l5-5z" fill="#09345F"/>
<path transform="translate(1061,1304)" d="m0 0h14l1 4v65l2 4-1 1h-17l1-5z" fill="#ACBED5"/>
<path transform="translate(1091,389)" d="m0 0 7 2v2h2l4 6 3 5 3 2 2-4 4 1 1 4h6l-2 5 2 3 1 6v37l-2 13-9-4-3-3v-33l-3-15-4-10-11-15z" fill="#99B7CF"/>
<path transform="translate(915,1304)" d="m0 0h16l1 2-2 3-1 10-1 56-5 3h-8l-5-2v-1l5-1v-2h2v-5h-2z" fill="#9CB9D0"/>
<path transform="translate(919,527)" d="m0 0v3l-4 5h-2v2h-3l2-4zm-10 10 2 2-10 14h-2l-1 5-6 10-4 14v14l3 6 8 5 8-1 10-4 6-5 1-5-7 2-5 3h-8l-1-4 5-4 5-2 3-1 2-5 3-4 8-3h4l2 5 5-2h3v21l2 8-1 4-3-9v-6h-2l1 5h-2l-1-9-5 3-11 9-14 7-10 1-8-5-4-6-2-9 1-13 4-10 9-16 10-13z" fill="#9BB9D0"/>
<path transform="translate(1202,1304)" d="m0 0h16l3 11-9 2 2 9 1 9v2h3l1 41h-17l2-5v-63z" fill="#9BB9D0"/>
<path transform="translate(1386,1091)" d="m0 0 8 2 11 7 13 13 2 3v5l-10 6-16 8-7-7-14-9-5-2 4-4 5-1 9 3 9 4 9 1-2-7-4-2-5-4-10-10 2-1-1-3h2z" fill="#306087"/>
<path transform="translate(1151,1308)" d="m0 0 4 1 2 3v11l2 8h1v7l-2 1-1 3-1 30-1 2-6 2 6 1v1h-31l3-3-3-3-1-5v-34l1-8 3-1 2 9 3-3v35l-1 4 4 2h16l1-45 1-8-5-7v-2z" fill="#AFBFD6"/>
<path transform="translate(1210,1141)" d="m0 0h19v29h-30l-15-1-1-1v-5l9-2h12l5 1 6-2 4-3v-7l-7-4-6-3z" fill="#316188"/>
<path transform="translate(969,423)" d="m0 0h14l8 5 5 8 1 8-7-1-10-3h-11l-11 4h-4v-7l5-8 5-4z" fill="#99C9ED"/>
<path transform="translate(1052,423)" d="m0 0h10l8 4 7 8 2 5-1 4-9-2-13-2-11 2-8 1-1-4 4-8 7-6z" fill="#9ACAEE"/>
<path transform="translate(1288,1153)" d="m0 0 4 2 7 13 2 1 1 7 2 2v7l2 7 1 4 3 1v3l3 1 5 10 4 4h-5l-9-7-10-11-8-14-2-6-1-18z" fill="#0B3761"/>
<path transform="translate(963,586)" d="m0 0 11 1h36l29 1-3 3 2 1 20 1 1 1v13l-2 2-4 1-2 3-4-1-3-2h-8l-3 2v-2l-17-1-1 4h-2v-2l-8 1-2-2h-19l4-2h62l7-2v-11l-26-1h-57l3-3-8-1-6 3h-5l1-4 1-2z" fill="#9BB9D0"/>
<path transform="translate(1e3 363)" d="m0 0 28 1 16 3 13 2-1-3 10 2 4 3-1 4-4 2-16-4-16-2h-45l-10 1h-9l1-2 14-3 4-2z" fill="#8BAECA"/>
<path transform="translate(1114,418)" d="m0 0 2 1v2l5 1 2 4v26l-1 11-1 1h-7l-3-3v-42z" fill="#9BB9D0"/>
<path transform="translate(919,527)" d="m0 0v3l-4 5h-2v2h-3l2-4zm-10 10 2 2-10 14h-2l-1 5-6 10-4 14v14l3 6 8 5 8-1 10-4 8-7 6-8 5-2 1 3-7 8-12 9-11 5-10 1-8-5-4-6-2-9 1-13 4-10 9-16 10-13z" fill="#9EB9D0"/>
<path transform="translate(812,1304)" d="m0 0h5l-1 20v43l27-1-1 9-2 2-2-5-2 1 1 4h-14l-2-1v-4l-7-1-2-11v-42l-1-12z" fill="#9DB9D0"/>
<path transform="translate(1150,484)" d="m0 0h10l8 3 5 6 1 3v12l-5 10-9 10-12 9-12 7h-5l4-4 13-8 9-6 7-9 3-5 1-7v-11l-3-4v-2h-20l-13 3-6 1h-10l2-2z" fill="#9EBAD1"/>
<path transform="translate(1164,497)" d="m0 0 3 1-2 11-5 7-8 7-4 4h-2l-1 3-17 10-3 2h-4l-1-8 2-3 12-5 17-9 5-5 4-5z" fill="#9BB9D0"/>
<path transform="translate(747,1309)" d="m0 0 3 1 4 3v59l-2 2-2-1v5l-7-1-6-1 4-2 4-1 2-1v-2h2l-1-41v-14l-4-3v-2z" fill="#AFBFD6"/>
<path transform="translate(1171,1083)" d="m0 0h9l11 5 2 1-1 3-4 1 1 5 10 1 8-2 9 1 2 1v4l-8 1-5-1h-13l-8 3-3 1 1-4h2l-3-7-7-6v-2h-10l3-3z" fill="#9ACAEE"/>
<path transform="translate(756,1309)" d="m0 0 2 1 1 6v49l-2 10-4 3h-3l-1-3 1-2 3-1 1-60h2z" fill="#A0BAD1"/>
<path transform="translate(722,1309)" d="m0 0 7 1 1 3-5 2-1 8 1 47 4 2-1 2 2 2-3 2h-3v-3l-3-2-1-9v-38l1-15z" fill="#B0C0D7"/>
<path transform="translate(1099,412)" d="m0 0 2 2 3 13v30l-4 16-6 11-9 10-10 8-12 5-13 3-10 1h-30l-28-2-14-3 4-1 11 2 12 1h54l13-3 16-8 12-11 8-14 3-10 1-8v-26l-3-13z" fill="#6C99BE"/>
<path transform="translate(647,1304)" d="m0 0h28l1 3-1 10-14-1-5-1-3-5-7-3z" fill="#9CB9D0"/>
<path transform="translate(892,1308)" d="m0 0 2 2 1 15v30l1 15 4 2 3 3v2l-2 1h-6l2-2-2-1v-2l-4-1-1-29 1-33z" fill="#B0C0D7"/>
<path transform="translate(997,337)" d="m0 0 42 1 5 2-1 3h-58l2-4z" fill="#37678D"/>
<path transform="translate(1161,1319)" d="m0 0h1v48l-3 9-4 2-7-1 2-3h5l1-32 2-6 2 1z" fill="#9FBAD1"/>
<path transform="translate(939,595)" d="m0 0h2l3 12 7 16 9 10 7 7 10 7 10 4v4l-6-1-12-7-10-9-10-11-10-21z" fill="#759FC1"/>
<path transform="translate(1061,1304)" d="m0 0h14l1 4-1 14-4-4-2-3h-2l-2 23-3 1z" fill="#99B7CF"/>
<path transform="translate(1114,405)" d="m0 0 9 2-2 5 2 3 1 6v37l-2 13-9-4-3-3v-13l1-20h1v30l2 2h7l1-11v-26l-1-7-7-6-1-4z" fill="#6C99BE"/>
<path transform="translate(987,1315)" d="m0 0h2l1 51 14 1 1-4 4 2-1 4-4 3h-12l-5-2-1-54z" fill="#709CBF"/>
<path transform="translate(920,1327)" d="m0 0h2l2 8v28l-1 8-4 4-4-1v-2h2l1-4 1-39z" fill="#AFBFD6"/>
<path transform="translate(954,490)" d="m0 0 5 2 10 5 13 3 30 2h24l19-2 13-5 5-2-4 4-13 5-16 3h-33l-29-3-15-5-9-6z" fill="#6C99BE"/>
<path transform="translate(812,1304)" d="m0 0h5l-1 20v43l2 1v2l-4 1-2-11v-42l-1-12z" fill="#9EBAD1"/>
<path transform="translate(1395,1304)" d="m0 0h24v13l-9-2 2-4-5 1-8-1-5-4z" fill="#6D99BE"/>
<path transform="translate(1308,1130)" d="m0 0h2l-1 10-1 3-1 11v18l-2 1-2-5v-21l-3-1v-11l6-2z" fill="#92BDDE"/>
<path transform="translate(934,585)" d="m0 0h2l1 3-7 8-12 9-11 5-10 1-8-7-4-8v-6l2 2 3 9 9 6 8-1 10-4 8-7 6-8z" fill="#77A0C2"/>
<path transform="translate(1213,1353)" d="m0 0 2 4 3 1 1 20h-17l2-5 1-2 6-1z" fill="#ABBED5"/>
<path transform="translate(1052,423)" d="m0 0h10l8 4 7 8 2 5-1 4-9-2-13-2-11 2-8 1-1-4 4-8 7-6zm2 1-10 5-1 3h-2l-3 4v5l8-1 10-2 15 3h5l-1-6-7-8-10-3z" fill="#6C99BE"/>
<path transform="translate(1e3 1345)" d="m0 0 13 1 1 1v9l-3 1-1 9-2 2 1-16-5-1-1 5 2 1-1 8-4-2-1-17z" fill="#9DB9D0"/>
<path transform="translate(1317,1304)" d="m0 0h18l1 2-1 10-3 1-11-6-4-3v-2l-2-1z" fill="#719CC0"/>
<path transform="translate(1202,1304)" d="m0 0h16l3 11h-5l-2 1h-5v-3l-2 2-2-1z" fill="#9CB9D0"/>
<path transform="translate(969,423)" d="m0 0h14l8 5 4 6-1 2-7-8-7-3h-10l-9 6-5 7-1 3 6-1 9-3h9l15 5 2 1 1-4v5l-7-1-10-3h-11l-11 4h-4v-7l5-8 5-4z" fill="#6C99BE"/>
<path transform="translate(1006,1313)" d="m0 0 3 3 2 9 2-1 4-1 2 1v7l-13 1-1-1-1-17z" fill="#9AB7CF"/>
<path transform="translate(1164,497)" d="m0 0 3 1-2 11-5 7-8 7-6 5-4 1v-3l8-6 10-13z" fill="#98B7CF"/>
<path transform="translate(1079,621)" d="m0 0 1 2-4 9-7 9-10 8-8 4-4-1 3-4 7-3 10-8z" fill="#729DC0"/>
<path transform="translate(983,348)" d="m0 0h1l2 7h38l16 1 4 1 1-2 1 2 7 2v1h-8l-6-2-29-1-18 1-5 2h-7l3-1z" fill="#6F9BBF"/>
<path transform="translate(638,1337)" d="m0 0 6 1 21 4v3h-4v-2l-6 3v1h-5l-10-4-2-2z" fill="#B0C0D7"/>
<path transform="translate(1375,1118)" d="m0 0 6 1 10 5 8 2 3 4-5 4-3 1-7-7-12-8z" fill="#0D3963"/>
<path transform="translate(1317,1154)" d="m0 0h1v5h2l2 9 5 13v3l-3 1-1-5-3-1v-2l-3-1-1-4v-10z" fill="#0F3A65"/>
<path transform="translate(1018,1356)" d="m0 0h1v13l-4 7-2 2h-26v-1l18-1 6-4 3-6 2-9z" fill="#9FBAD1"/>
<path transform="translate(970,572)" d="m0 0 4 5 5 4 9 1h61l10-6-1 4h-2l-1 3-3 1h-65l-11-1-3-2v-2h-2z" fill="#9BB9D0"/>
<path transform="translate(1112,445)" d="m0 0h2l1 3v7h5l2-1v9l-1 1h-7l-3-3v-9z" fill="#9BB9D0"/>
<path transform="translate(988,590)" d="m0 0h44v2l-2 1h-38l-4-2z" fill="#B0C0D7"/>
<path transform="translate(1010,356)" d="m0 0 29 1v1l-25 1-20 1-4 2-3 1v-2h-11l-3-2h14l5-2z" fill="#9BB9D0"/>
<path transform="translate(1212,1317)" d="m0 0h7l1 3-1 11 2 6h-6l-1-7-2-6z" fill="#6C99BE"/>
<path transform="translate(1089,587)" d="m0 0h1v15l-6 16-5 10-1-3v-3l2-6 6-16z" fill="#9EBAD1"/>
<path transform="translate(1236,1328)" d="m0 0 2 1v16l-2 8-3-1-4-8-1-5 4 2 1 2 2-14z" fill="#6B97BC"/>
<path transform="translate(908,407)" d="m0 0 4 1-3 9-2 10v22l3 20 5 12-1 2-3-3-4-14-2-14v-27z" fill="#6C99BE"/>
<path transform="translate(1390,1339)" d="m0 0 20 2 3 1v3h-20l-8-2-1-3z" fill="#9ACAEE"/>
<path transform="translate(644,1371)" d="m0 0 11 2 1 3 13 1v1h-37v-1l8-1z" fill="#B0C0D7"/>
<path transform="translate(1149,1363)" d="m0 0 2 4-1 4-2 1h-13l-5-3 1-4 2 1 15 1z" fill="#7BA2C3"/>
<path transform="translate(1170,1084)" d="m0 0h5l1 3 6 2 4 9 2 3-6 5v-3h2l-3-7-7-6v-2h-10l3-3z" fill="#9BB9D0"/>
<path transform="translate(1009,1350)" d="m0 0h5l1 2v8l-3 10-4 2 1-15-1-1v-5z" fill="#AFBFD6"/>
<path transform="translate(1010,1309)" d="m0 0 3 1 1 4v12l-3-1-3-9-1-2-7-1-6 1-2-3z" fill="#AFBFD6"/>
<path transform="translate(949,378)" d="m0 0h5l-5 4-9 7-7 7-8 13-4 14h-1l1-10 8-16 10-11 6-4h2z" fill="#6F9BBF"/>
<path transform="translate(722,1127)" d="m0 0 4 2 6 10 1 6v15l-1 5h-1l-1-20-6-12z" fill="#0D3964"/>
<path transform="translate(1090,1097)" d="m0 0h1v18h-13l6-7 4-1z" fill="#316188"/>
<path transform="translate(1061,1304)" d="m0 0h14l-2 2-2 4-4 1-2 5h-3z" fill="#A2BBD2"/>
<path transform="translate(650,1097)" d="m0 0 1 3-4 4v7l4 1 5-3 5-1-4 3-4 1-2 4-5 1-2-1-1-10 4-7z" fill="#9ABBD4"/>
<path transform="translate(670,1084)" d="m0 0 16 1 11 2 1 3-3 3-1-5h-39v-1l7-1 1-1z" fill="#9BB9D0"/>
<path transform="translate(760,1174)" d="m0 0h1v6l-9 15-6 5-1-2 7-10 5-9z" fill="#113D67"/>
<path transform="translate(1145,485)" d="m0 0h5l-3 3-21 4h-10l2-2z" fill="#769FC1"/>
<path transform="translate(662,1348)" d="m0 0h1l1 9 4-4 1 4 2 12-4-1-2-3v-4h-2l-1 2z" fill="#B0C0D7"/>
<path transform="translate(996,364)" d="m0 0h7l5 2-2 2-25 3h-6l3-2 11-2 4-2z" fill="#9FBAD1"/>
<path transform="translate(930,1146)" d="m0 0h1v37l-2 4-1-21 1-15z" fill="#08335E"/>
<path transform="translate(1146,1089)" d="m0 0 2 1 3 7 8-2v2l-6 3-8-1-1 6h-1v-11l1-4z" fill="#9ACAEE"/>
<path transform="translate(1113,432)" d="m0 0h1l1 7 3 9h4v6l-2 2-5-1-2-10z" fill="#B0C0D7"/>
<path transform="translate(1230,1091)" d="m0 0h1v25l-8-1 1-4 4-1 1-17z" fill="#316188"/>
<path transform="translate(1064,586)" d="m0 0 5 1 2 1-2 5h-4v-3h-13l-6-1v-1l5-1h10z" fill="#9BB9D0"/>
<path transform="translate(893,1180)" d="m0 0 1 3-3 5-8 3h-14l-1-2 12-1 9-4z" fill="#316188"/>
<path transform="translate(1065,1315)" d="m0 0h1v12l-1 11-3 1v-23z" fill="#9BB9D0"/>
<path transform="translate(1104,480)" d="m0 0 8 1 4 2-1 8-4-2-3-4h-7l2-4z" fill="#6C99BE"/>
<path transform="translate(939,595)" d="m0 0h2l3 12 3 10 1 6-3-4-6-13z" fill="#7CA3C4"/>
<path transform="translate(919,527)" d="m0 0v3l-4 5h-2v2h-3l2-4zm-10 10 2 2-10 14-2-1 4-8z" fill="#89ABC9"/>
<path transform="translate(745,1353)" d="m0 0h2l1 17-4 2h-7l-1-3 7-1 1-1z" fill="#6C99BE"/>
<path transform="translate(1109,454)" d="m0 0h1l1 12 9 3 1 1 2-3v7l-4 1-3-3-5-3-2-3z" fill="#316188"/>
<path transform="translate(803,1368)" d="m0 0h2l1 4 5 2 1 2h-2v2h-10l1-5z" fill="#9BB9D0"/>
<path transform="translate(1129,1344)" d="m0 0h2l1 6v15l-1 4 1 2-3-1-1-25z" fill="#9AB9D0"/>
<path transform="translate(1294,1339)" d="m0 0h1v15h2v-3l2 1v3h-2l1 15-4-4z" fill="#AEBFD6"/>
<path transform="translate(1216,1202)" d="m0 0h3l1 10-2 1h-17v-1l14-1v-8z" fill="#9ABBD3"/>
<path transform="translate(1393,1179)" d="m0 0h7l6 5-4 3-5 1v-2h-2l1-6z" fill="#0B3762"/>
<path transform="translate(1064,590)" d="m0 0 2 3 3-1 2-2v10l2 1v2l-4 2-5-9-1-3z" fill="#9BB9D0"/>
<path transform="translate(1095,393)" d="m0 0 4 2 7 11 4 11v7h-1l-4-14-7-11-3-4z" fill="#6C99BE"/>
<path transform="translate(1412,1188)" d="m0 0 7 2v5l-6 7-3-1 3-5v-6z" fill="#133F69"/>
<path transform="translate(1324,1129)" d="m0 0 2 1-5 12h-2l-1 11h-1v-12l5-10z" fill="#0F3B65"/>
<path transform="translate(1115,550)" d="m0 0 3 1-3 3-13 6h-4v-2z" fill="#A1BBD2"/>
<path transform="translate(640,1304)" d="m0 0h7l-1 3 5 1 5 5v2h-2v-2h-4l-2-5-7-1-2 1-3-2z" fill="#B0C0D7"/>
<path transform="translate(843,1089)" d="m0 0 4 1 2 6-2 4-4-1-1-9z" fill="#316188"/>
<path transform="translate(1067,611)" d="m0 0h4v14l-2 3-2-10-1-1v-5z" fill="#9BB9D0"/>
<path transform="translate(1157,514)" d="m0 0h2l-2 4-9 9-6 2v-3l14-10z" fill="#6C99BE"/>
<path transform="translate(1062,1357)" d="m0 0 2 4 2 7 1 7-1 2-2-1-1-2-2 1z" fill="#9CB9D0"/>
<path transform="translate(988,608)" d="m0 0h28l-1 5h-2v-2l-8 1-2-2h-19z" fill="#9BB9D0"/>
<path transform="translate(800,1304)" d="m0 0 9 2 1 3-3 1-2 5h-2l-3-8z" fill="#9EBAD1"/>
<path transform="translate(1207,1087)" d="m0 0 6 2 1 3-7 1-6-1 1-4z" fill="#9ACAEE"/>
<path transform="translate(1108,476)" d="m0 0 6 2 5 1v2h-2v2l-5-1-9-1 2-4z" fill="#33638A"/>
<path transform="translate(1114,418)" d="m0 0 2 1v2l5 1 1 7-4-4h-4l-2 4-1-10z" fill="#B0C0D7"/>
<path transform="translate(1210,1310)" d="m0 0 5 1 3 1v-2h2l1 5h-5l-2 1h-5l-1-5z" fill="#B0C0D7"/>
<path transform="translate(1029,1215)" d="m0 0 4 1 2 3v5h-6l-1-7z" fill="#316188"/>
<path transform="translate(1208,1098)" d="m0 0h8l2 1v4l-12-1v-3z" fill="#9ABDD7"/>
<path transform="translate(1102,484)" d="m0 0h6l5 6h-3l-3-4-5 1-13 13-2-1 10-10z" fill="#8FB0CB"/>
<path transform="translate(745,1156)" d="m0 0 4 2 2 3-1 7-4 5-4 1 3-7 3-1-1-7z" fill="#7EA5C7"/>
<path transform="translate(1396,1373)" d="m0 0h5l-2 3-9 2h-14v-1l19-3z" fill="#B0C0D7"/>
<path transform="translate(983,348)" d="m0 0h1l2 7 9 1-3 2-5 2h-7l3-1z" fill="#759FC1"/>
<path transform="translate(1128,1308)" d="m0 0 6 1-5 8-4-1 1-7z" fill="#AEBFD6"/>
<path transform="translate(697,1087)" d="m0 0 4 1v3h-3l3 6 1 1v7h-2v-5l-5-6 2-6z" fill="#9AC1DF"/>
<path transform="translate(916,1363)" d="m0 0 2 4-1 4-3 1h-7l-1-3 9-2z" fill="#6C99BE"/>
<path transform="translate(1306,1330)" d="m0 0h1v8h-5l-2 6-2-1v-6l3-3v2l5-2z" fill="#B0C0D7"/>
<path transform="translate(1091,389)" d="m0 0 7 2v2h2l6 9h-3l-4-5v-2l-5-2z" fill="#96B5CE"/>
<path transform="translate(1179,1117)" d="m0 0 3 1-1 10-1 2h-2v-12z" fill="#9ACAEE"/>
<path transform="translate(1307,1154)" d="m0 0h1v20h-4l1-4 1 2v-17z" fill="#6F9BBF"/>
<path transform="translate(1302,1134)" d="m0 0 3 1-2 10-3 1v-11z" fill="#95B3CE"/>
<path transform="translate(675,1358)" d="m0 0h1l-1 14-2 3-2-1 2-3h-2l2-5-2-3 3-1z" fill="#AEBFD6"/>
<path transform="translate(1018,1356)" d="m0 0h1v13l-4-3 1-9z" fill="#B0C0D7"/>
<path transform="translate(1333,1103)" d="m0 0 1 4v2l9 1v1l-14 1 2-7z" fill="#9AB9D1"/>
<path transform="translate(1371,1094)" d="m0 0 4 4 1 7-3 2h-5l3-2 1-7z" fill="#9ABDD7"/>
<path transform="translate(960,588)" d="m0 0h7l-1 4-8 1 1-4z" fill="#6C99BE"/>
<path transform="translate(928,516)" d="m0 0 1 3-7 8-4 1 2-4z" fill="#99B7CF"/>
<path transform="translate(984,343)" d="m0 0 3 4v8h8v1h-9l-2-3z" fill="#326289"/>
<path transform="translate(1007,1374)" d="m0 0 3 1 3 3h-26v-1l18-1z" fill="#B0C0D7"/>
<path transform="translate(1308,1130)" d="m0 0h2l-1 10-3 1-1-3 1-5z" fill="#A7C0D9"/>
<path transform="translate(1232,1304)" d="m0 0 8 1-1 4-4 1-3-3z" fill="#709BBF"/>
<path transform="translate(893,1180)" d="m0 0 1 3-3 5-4 1-5-1 4-2z" fill="#4E7BA0"/>
<path transform="translate(1065,587)" d="m0 0 6 1-2 5h-4l-1-5z" fill="#6C99BE"/>
<path transform="translate(842,1367)" d="m0 0h1v11h-8l2-1-2-5h3l2 4 1-1z" fill="#B0C0D7"/>
<path transform="translate(907,463)" d="m0 0h2l3 12 3 6-1 2-3-3-4-14z" fill="#6E9ABF"/>
<path transform="translate(1315,1341)" d="m0 0h9v3h-11v-2z" fill="#AEBFD6"/>
<path transform="translate(892,1308)" d="m0 0 2 2 1 10-4-2v-8z" fill="#AEBFD6"/>
<path transform="translate(1241,1373)" d="m0 0h2l1 3 4 2h-15l4-2 4-1z" fill="#AEBFD6"/>
<path transform="translate(908,540)" d="m0 0v3l-7 10-2-1 4-8z" fill="#82A7C6"/>
<path transform="translate(1293,1304)" d="m0 0h7l-2 4-3 3-2-4z" fill="#6D9ABE"/>
<path transform="translate(983,1310)" d="m0 0h7l-1 4-5 1z" fill="#B0C0D7"/>
<path transform="translate(1067,611)" d="m0 0h3v8l-4-2v-5z" fill="#6C99BE"/>
<path transform="translate(949,599)" d="m0 0 4 1-3 6-3-1 1-5z" fill="#8DAFCA"/>
<path transform="translate(640,1304)" d="m0 0h7v4l-6-1-2 1-3-2z" fill="#ADBFD6"/>
<path transform="translate(647,1134)" d="m0 0 5 2-1 2h-5l-4 4 1-5z" fill="#9ACAEE"/>
<path transform="translate(1372,1083)" d="m0 0 7 1 2 1v2h-7l-3-2z" fill="#9AC1DF"/>
<path transform="translate(1133,1312)" d="m0 0 3 1-3 2-2 5-2 1-1-4z" fill="#6C99BE"/>
</svg>
